===========Visit DUSTorrents for more Exclusives==============

Visit DusTorrents for more exclusives....

DusTorrents a Complete FreeLeech Site!! Registrations are absolutely FREE!!

Register by visiting..... dustorrents

===========Visit DUSTorrents for more Exclusives==============
[CENTER]
[img]http://picturestack.com/113/324/4TI1qsBYCX8.jpg[/img]

Rowdy Rathore (2012) - 1CD.DVDRip.Xvid.MP3.Subs-Dustorrents

[B][COLOR="#FF0000"]SOURCE/CREDITS: MUKESHAMBANI![/COLOR][/B]

Information:

[CODE]Complete name : Rowdy Rathore (2012) 1CD DVD Rip Xvid MP3.avi
Format : AVI
Format/Info : Audio Video Interleave
File size : 699 MiB
Duration : 2h 23mn
Overall bit rate : 680 Kbps
Writing library : VirtualDub build 32661/release

Video
ID : 0
Format : MPEG-4 Visual
Format profile : Advanced Simple@L5
Format settings, BVOP : 2
Format settings, QPel : Yes
Format settings, GMC : No warppoints
Format settings, Matrix : Default (H.263)
Codec ID : XVID
Codec ID/Hint : XviD
Duration : 2h 23mn
Bit rate : 574 Kbps
Width : 608 pixels
Height : 256 pixels
Display aspect ratio : 2.40:1
Frame rate : 23.976 fps
Color space : YUV
Chroma subsampling : 4:2:0
Bit depth : 8 bits
Scan type : Progressive
Compression mode : Lossy
Bits/(Pixel*Frame) : 0.154
Stream size : 591 MiB (84%)
Writing library : XviD 1.2.1 (UTC 2008-12-04)

Audio
ID : 1
Format : MPEG Audio
Format version : Version 1
Format profile : Layer 3
Mode : Joint stereo
Mode extension : MS Stereo
Codec ID : 55
Codec ID/Hint : MP3
Duration : 2h 23mn
Bit rate mode : Constant
Bit rate : 96.0 Kbps
Channel(s) : 2 channels
Sampling rate : 32.0 KHz
Compression mode : Lossy
Stream size : 98.7 MiB (14%)
Alignment : Split accross interleaves
Interleave, duration : 42 ms (1.00 video frame)
Interleave, preload duration : 500 ms
Writing library : LAME3.99r
Encoding settings : -m j -V 4 -q 2 -lowpass 15.1 -b 96[/CODE]

Screenshots: 
http://picturestack.com/105/392/j26rip1ypc.png 
http://picturestack.com/105/392/Id3rip2vvh.png 
http://picturestack.com/105/392/XXArip3aLa.png 
http://picturestack.com/105/392/O0Drip4Ltw.png 
http://picturestack.com/105/392/OPZrip5iq9.png[/CENTER]

===========Visit DUSTorrents for more Exclusives==============

Visit DusTorrents for more exclusives....

DusTorrents a Complete FreeLeech Site!! Registrations are absolutely FREE!!

Register by visiting..... dustorrents

===========Visit DUSTorrents for more Exclusives==============